# Blender v2.93.5 OBJ File: 'Check Dat Out!.blend'
# www.blender.org
mtllib bodymisc.mtl
o bodymisc_frame.001
v 1.089448 0.074665 2.131504
v 1.089447 0.079602 2.129457
v 1.089448 0.081648 2.124519
v 1.089448 0.079602 2.119583
v 1.089448 0.074665 2.117537
v 1.089448 0.069727 2.119583
v 1.089448 0.067682 2.124519
v 1.089447 0.069727 2.129457
v 1.092920 0.074666 2.130963
v 1.092920 0.079222 2.129076
v 1.092921 0.081109 2.124520
v 1.092921 0.079222 2.119963
v 1.092919 0.074666 2.118076
v 1.092921 0.070109 2.119963
v 1.092921 0.068222 2.124520
v 1.092920 0.070109 2.129076
v 1.092921 0.074666 2.124520
v 1.088844 -0.085042 2.131555
v 1.088843 -0.080105 2.129511
v 1.088844 -0.078059 2.124573
v 1.088842 -0.080105 2.119634
v 1.088843 -0.085042 2.117591
v 1.088842 -0.089980 2.119634
v 1.088844 -0.092025 2.124572
v 1.088843 -0.089980 2.129511
v 1.092316 -0.085042 2.131016
v 1.092314 -0.080485 2.129129
v 1.092315 -0.078598 2.124573
v 1.092315 -0.080485 2.120016
v 1.092316 -0.085042 2.118129
v 1.092315 -0.089598 2.120016
v 1.092315 -0.091485 2.124573
v 1.092314 -0.089598 2.129129
v 1.092315 -0.085042 2.124573
v 1.087159 0.070337 2.294231
v 1.087158 0.076172 2.291814
v 1.087157 0.078588 2.285979
v 1.087159 0.076172 2.280144
v 1.087159 0.070337 2.277727
v 1.087159 0.064502 2.280144
v 1.087157 0.062085 2.285979
v 1.087158 0.064502 2.291814
v 1.090630 0.070337 2.293592
v 1.090631 0.075721 2.291363
v 1.090631 0.077951 2.285979
v 1.090631 0.075721 2.280594
v 1.090631 0.070337 2.278365
v 1.090631 0.064953 2.280594
v 1.090631 0.062723 2.285979
v 1.090631 0.064953 2.291363
v 1.090631 0.070337 2.285979
v 1.085486 -0.080760 2.294027
v 1.085484 -0.074925 2.291611
v 1.085485 -0.072508 2.285776
v 1.085484 -0.074925 2.279941
v 1.085485 -0.080760 2.277525
v 1.085484 -0.086595 2.279941
v 1.085485 -0.089012 2.285776
v 1.085484 -0.086595 2.291611
v 1.088956 -0.080760 2.293391
v 1.088956 -0.075376 2.291160
v 1.088956 -0.073146 2.285775
v 1.088956 -0.075376 2.280392
v 1.088956 -0.080760 2.278162
v 1.088956 -0.086144 2.280392
v 1.088956 -0.088374 2.285775
v 1.088956 -0.086144 2.291160
v 1.088956 -0.080760 2.285775
vt 0.042806 0.352618
vt 0.037051 0.338722
vt 0.043880 0.351545
vt 0.038569 0.338722
vt 0.056703 0.358374
vt 0.056703 0.356856
vt 0.070600 0.352618
vt 0.069526 0.351545
vt 0.076356 0.338722
vt 0.074838 0.338722
vt 0.070600 0.324825
vt 0.069526 0.325899
vt 0.056703 0.319069
vt 0.056703 0.320587
vt 0.042806 0.324825
vt 0.043880 0.325899
vt 0.056703 0.338722
vt 0.925138 0.360748
vt 0.919553 0.347264
vt 0.926180 0.359706
vt 0.921026 0.347264
vt 0.938622 0.366333
vt 0.938622 0.364860
vt 0.952106 0.360748
vt 0.951064 0.359706
vt 0.957691 0.347264
vt 0.956218 0.347264
vt 0.952106 0.333780
vt 0.951064 0.334822
vt 0.938622 0.328195
vt 0.938622 0.329668
vt 0.925138 0.333780
vt 0.926180 0.334822
vt 0.938622 0.347264
vt 0.042806 0.352618
vt 0.037051 0.338722
vt 0.043880 0.351545
vt 0.038569 0.338722
vt 0.056703 0.358374
vt 0.056703 0.356856
vt 0.070600 0.352618
vt 0.069526 0.351545
vt 0.076356 0.338722
vt 0.074838 0.338722
vt 0.070600 0.324825
vt 0.069526 0.325899
vt 0.056703 0.319069
vt 0.056703 0.320587
vt 0.042806 0.324825
vt 0.043880 0.325899
vt 0.056703 0.338722
vt 0.925138 0.360748
vt 0.919553 0.347264
vt 0.926180 0.359706
vt 0.921026 0.347264
vt 0.938622 0.366333
vt 0.938622 0.364860
vt 0.952106 0.360748
vt 0.951064 0.359706
vt 0.957691 0.347264
vt 0.956218 0.347264
vt 0.952106 0.333780
vt 0.951064 0.334822
vt 0.938622 0.328195
vt 0.938622 0.329668
vt 0.925138 0.333780
vt 0.926180 0.334822
vt 0.938622 0.347264
vn 0.1534 0.6988 0.6987
vn 0.1537 -0.0001 0.9881
vn 0.6871 0.5138 0.5137
vn 0.6872 0.0000 0.7265
vn 0.1533 0.9882 0.0000
vn 0.6871 0.7265 0.0000
vn 0.1533 0.6987 -0.6988
vn 0.6871 0.5136 -0.5139
vn 0.1535 0.0000 -0.9882
vn 0.6870 0.0001 -0.7266
vn 0.1535 -0.6988 -0.6987
vn 0.6872 -0.5136 -0.5138
vn 0.1537 -0.9881 0.0000
vn 0.6873 -0.7264 0.0000
vn 0.1536 -0.6988 0.6987
vn 0.6872 -0.5137 0.5137
vn 1.0000 0.0000 -0.0001
vn 0.1535 0.6987 0.6988
vn 0.1534 -0.0000 0.9882
vn 0.6870 0.5138 0.5138
vn 0.6873 0.0001 0.7264
vn 0.1534 0.9882 -0.0000
vn 0.6872 0.7265 0.0000
vn 0.1534 0.6987 -0.6988
vn 0.6872 0.5138 -0.5136
vn 0.1533 -0.0001 -0.9882
vn 0.6872 -0.0000 -0.7264
vn 0.1536 -0.6986 -0.6988
vn 0.6872 -0.5137 -0.5137
vn 0.1538 -0.9881 -0.0001
vn 0.1537 -0.6987 0.6987
vn 0.6871 -0.5137 0.5137
vn 1.0000 0.0000 0.0000
vn 0.1806 0.6955 0.6954
vn 0.1508 0.0572 0.9869
vn 0.6971 0.5070 0.5070
vn 0.6972 -0.0001 0.7169
vn 0.1510 0.9869 -0.0565
vn 0.6971 0.7170 0.0000
vn 0.1806 0.6955 -0.6954
vn 0.6971 0.5070 -0.5070
vn 0.1510 -0.0567 -0.9869
vn 0.6972 0.0000 -0.7169
vn 0.1806 -0.6955 -0.6954
vn 0.6971 -0.5070 -0.5070
vn 0.1511 -0.9869 0.0563
vn 0.6971 -0.7170 -0.0000
vn 0.1807 -0.6955 0.6955
vn 0.6971 -0.5069 0.5070
vn 0.1807 0.6954 0.6955
vn 0.1512 0.0562 0.9869
vn 0.6971 0.5070 0.5069
vn 0.6971 0.0001 0.7170
vn 0.1510 0.9869 -0.0567
vn 0.1807 0.6954 -0.6955
vn 0.6972 0.5070 -0.5069
vn 0.1511 -0.0564 -0.9869
vn 0.6971 -0.0000 -0.7170
vn 0.1806 -0.6954 -0.6955
vn 0.6971 -0.5070 -0.5069
vn 0.1511 -0.9869 0.0566
vn 0.6971 -0.5070 0.5069
usemtl glass
s 1
f 2/1/1 1/2/2 10/3/3
f 10/3/3 1/2/2 9/4/4
f 3/5/5 2/1/1 11/6/6
f 11/6/6 2/1/1 10/3/3
f 4/7/7 3/5/5 12/8/8
f 12/8/8 3/5/5 11/6/6
f 5/9/9 4/7/7 13/10/10
f 13/10/10 4/7/7 12/8/8
f 6/11/11 5/9/9 14/12/12
f 14/12/12 5/9/9 13/10/10
f 7/13/13 6/11/11 15/14/14
f 15/14/14 6/11/11 14/12/12
f 8/15/15 7/13/13 16/16/16
f 16/16/16 7/13/13 15/14/14
f 1/2/2 8/15/15 9/4/4
f 9/4/4 8/15/15 16/16/16
f 10/3/3 9/4/4 17/17/17
f 11/6/6 10/3/3 17/17/17
f 12/8/8 11/6/6 17/17/17
f 13/10/10 12/8/8 17/17/17
f 14/12/12 13/10/10 17/17/17
f 15/14/14 14/12/12 17/17/17
f 16/16/16 15/14/14 17/17/17
f 9/4/4 16/16/16 17/17/17
f 19/18/18 18/19/19 27/20/20
f 27/20/20 18/19/19 26/21/21
f 20/22/22 19/18/18 28/23/23
f 28/23/23 19/18/18 27/20/20
f 21/24/24 20/22/22 29/25/25
f 29/25/25 20/22/22 28/23/23
f 22/26/26 21/24/24 30/27/27
f 30/27/27 21/24/24 29/25/25
f 23/28/28 22/26/26 31/29/29
f 31/29/29 22/26/26 30/27/27
f 24/30/30 23/28/28 32/31/14
f 32/31/14 23/28/28 31/29/29
f 25/32/31 24/30/30 33/33/32
f 33/33/32 24/30/30 32/31/14
f 18/19/19 25/32/31 26/21/21
f 26/21/21 25/32/31 33/33/32
f 27/20/20 26/21/21 34/34/33
f 28/23/23 27/20/20 34/34/33
f 29/25/25 28/23/23 34/34/33
f 30/27/27 29/25/25 34/34/33
f 31/29/29 30/27/27 34/34/33
f 32/31/14 31/29/29 34/34/33
f 33/33/32 32/31/14 34/34/33
f 26/21/21 33/33/32 34/34/33
f 36/35/34 35/36/35 44/37/36
f 44/37/36 35/36/35 43/38/37
f 37/39/38 36/35/34 45/40/39
f 45/40/39 36/35/34 44/37/36
f 38/41/40 37/39/38 46/42/41
f 46/42/41 37/39/38 45/40/39
f 39/43/42 38/41/40 47/44/43
f 47/44/43 38/41/40 46/42/41
f 40/45/44 39/43/42 48/46/45
f 48/46/45 39/43/42 47/44/43
f 41/47/46 40/45/44 49/48/47
f 49/48/47 40/45/44 48/46/45
f 42/49/48 41/47/46 50/50/49
f 50/50/49 41/47/46 49/48/47
f 35/36/35 42/49/48 43/38/37
f 43/38/37 42/49/48 50/50/49
f 44/37/36 43/38/37 51/51/33
f 45/40/39 44/37/36 51/51/33
f 46/42/41 45/40/39 51/51/33
f 47/44/43 46/42/41 51/51/33
f 48/46/45 47/44/43 51/51/33
f 49/48/47 48/46/45 51/51/33
f 50/50/49 49/48/47 51/51/33
f 43/38/37 50/50/49 51/51/33
f 53/52/50 52/53/51 61/54/52
f 61/54/52 52/53/51 60/55/53
f 54/56/54 53/52/50 62/57/39
f 62/57/39 53/52/50 61/54/52
f 55/58/55 54/56/54 63/59/56
f 63/59/56 54/56/54 62/57/39
f 56/60/57 55/58/55 64/61/58
f 64/61/58 55/58/55 63/59/56
f 57/62/59 56/60/57 65/63/60
f 65/63/60 56/60/57 64/61/58
f 58/64/61 57/62/59 66/65/47
f 66/65/47 57/62/59 65/63/60
f 59/66/48 58/64/61 67/67/62
f 67/67/62 58/64/61 66/65/47
f 52/53/51 59/66/48 60/55/53
f 60/55/53 59/66/48 67/67/62
f 61/54/52 60/55/53 68/68/33
f 62/57/39 61/54/52 68/68/33
f 63/59/56 62/57/39 68/68/33
f 64/61/58 63/59/56 68/68/33
f 65/63/60 64/61/58 68/68/33
f 66/65/47 65/63/60 68/68/33
f 67/67/62 66/65/47 68/68/33
f 60/55/53 67/67/62 68/68/33
