# Blender v2.93.5 OBJ File: 'Check Dat Out!.blend'
# www.blender.org
mtllib body6.mtl
o body6_chassis
v 1.066243 -0.089990 2.752779
v 1.065505 -0.086117 2.756215
v 1.065110 -0.087432 2.759586
v 1.065838 -0.091332 2.756437
v 1.064646 -0.090447 2.763255
v 1.065520 -0.094104 2.759870
v 1.064293 -0.094948 2.765186
v 1.065087 -0.098168 2.761590
v 1.064021 -0.099919 2.765966
v 1.064772 -0.103325 2.762358
v 1.063838 -0.101217 2.766634
v 1.064525 -0.105679 2.763734
v 1.063714 -0.101630 2.768049
v 1.064290 -0.106420 2.766175
v 1.066465 -0.088598 2.750871
v 1.065613 -0.085186 2.754864
v 1.066649 -0.086141 2.750468
v 1.065789 -0.083157 2.754702
v 1.071434 -0.004515 2.750797
v 1.070226 -0.004716 2.755187
v 1.070220 0.074908 2.760241
v 1.069207 0.072416 2.764387
v 1.070295 0.070208 2.760141
v 1.069271 0.067637 2.764239
v 1.070411 0.066243 2.759145
v 1.069430 0.063082 2.763030
v 1.070637 0.063626 2.756749
v 1.069729 0.059677 2.759886
v 1.070917 0.061797 2.752926
v 1.069948 0.057541 2.756356
v 1.071027 0.060299 2.751679
v 1.070008 0.057101 2.755872
v 1.071072 0.058275 2.751416
v 1.070010 0.056422 2.755678
v 1.063312 -0.101614 2.772995
v 1.063874 -0.106415 2.771703
v 1.055198 -0.101610 2.807857
v 1.054756 -0.106423 2.809530
v 1.054176 -0.101610 2.810313
v 1.034193 -0.101539 2.839344
v 1.033968 -0.106371 2.839081
v 1.005729 -0.101356 2.855900
v 1.004716 -0.106334 2.855902
v 1.070153 0.077214 2.761037
v 1.069170 0.073291 2.764878
v 1.069957 0.078741 2.763387
v 1.069096 0.073876 2.765731
v 1.069229 0.078825 2.773582
v 1.068436 0.074015 2.774877
v 1.057528 0.078703 2.813853
v 1.056702 0.074025 2.817019
v 1.054421 0.074028 2.819928
v 1.036445 0.078739 2.842055
v 1.036306 0.074051 2.842220
v 1.006118 0.078721 2.858444
v 1.007032 0.074017 2.858329
v 0.972891 0.078821 2.865194
v 0.975196 0.074134 2.864865
v 0.970915 0.078403 2.865554
v 0.974145 0.073874 2.865072
v 0.969589 0.076474 2.865581
v 0.973583 0.073066 2.865158
v 0.968724 0.071400 2.865553
v 0.972804 0.068120 2.865192
v 0.965933 0.067144 2.865639
v 0.969853 0.063460 2.865279
v 0.961883 0.064272 2.865844
v 0.965317 0.060382 2.865507
v 0.956696 0.062631 2.866102
v 0.960564 0.058883 2.865751
v 0.955362 0.061498 2.866186
v 0.959757 0.058300 2.865823
v 0.954771 0.059706 2.866222
v 0.959468 0.057280 2.865858
v 0.954239 -0.007781 2.865153
v 0.959082 -0.007905 2.864828
v 0.954116 -0.040766 2.864903
v 0.959041 -0.038846 2.864622
v 0.959035 -0.042128 2.864591
v 0.953947 -0.086049 2.864560
v 0.958980 -0.083265 2.864316
v 0.976672 -0.101312 2.861905
v 0.974797 -0.106332 2.862038
v 0.975323 -0.101003 2.862170
v 0.971833 -0.106244 2.862672
v 0.974009 -0.100230 2.862487
v 0.970175 -0.104741 2.863005
v 0.972397 -0.095469 2.862877
v 0.968132 -0.099554 2.863501
v 0.969570 -0.091236 2.863527
v 0.965484 -0.095745 2.864093
v 0.965168 -0.087928 2.864043
v 0.961952 -0.092827 2.864230
v 0.960343 -0.085864 2.864204
v 0.956752 -0.090583 2.864450
v 0.959291 -0.084921 2.864250
v 0.954720 -0.088588 2.864500
v -1.066265 -0.089990 2.752779
v -1.065527 -0.086117 2.756215
v -1.065132 -0.087432 2.759586
v -1.065860 -0.091332 2.756437
v -1.064668 -0.090447 2.763255
v -1.065542 -0.094104 2.759870
v -1.064315 -0.094948 2.765186
v -1.065109 -0.098168 2.761590
v -1.064043 -0.099919 2.765966
v -1.064794 -0.103325 2.762358
v -1.063859 -0.101217 2.766634
v -1.064547 -0.105679 2.763734
v -1.063735 -0.101630 2.768049
v -1.064312 -0.106420 2.766175
v -1.066487 -0.088598 2.750871
v -1.065635 -0.085186 2.754864
v -1.066671 -0.086141 2.750468
v -1.065811 -0.083157 2.754702
v -1.071456 -0.004515 2.750797
v -1.070248 -0.004716 2.755187
v -1.070242 0.074908 2.760241
v -1.069229 0.072416 2.764387
v -1.070317 0.070208 2.760141
v -1.069293 0.067637 2.764239
v -1.070433 0.066243 2.759145
v -1.069452 0.063082 2.763030
v -1.070658 0.063626 2.756749
v -1.069751 0.059677 2.759886
v -1.070939 0.061797 2.752926
v -1.069970 0.057541 2.756356
v -1.071049 0.060299 2.751679
v -1.070030 0.057101 2.755872
v -1.071094 0.058275 2.751416
v -1.070032 0.056422 2.755678
v -1.063334 -0.101614 2.772995
v -1.063895 -0.106415 2.771703
v -1.055220 -0.101610 2.807857
v -1.054778 -0.106423 2.809530
v -1.054198 -0.101610 2.810313
v -1.034214 -0.101539 2.839344
v -1.033989 -0.106371 2.839081
v -1.005750 -0.101356 2.855900
v -1.004736 -0.106334 2.855902
v -1.070174 0.077214 2.761037
v -1.069192 0.073291 2.764878
v -1.069979 0.078741 2.763387
v -1.069118 0.073876 2.765731
v -1.069251 0.078825 2.773582
v -1.068458 0.074015 2.774877
v -1.057550 0.078703 2.813853
v -1.056724 0.074025 2.817019
v -1.054442 0.074028 2.819928
v -1.036467 0.078739 2.842055
v -1.036328 0.074051 2.842220
v -1.006138 0.078721 2.858444
v -1.007052 0.074017 2.858329
v -0.972911 0.078821 2.865194
v -0.975216 0.074134 2.864865
v -0.970935 0.078403 2.865554
v -0.974165 0.073874 2.865072
v -0.969609 0.076474 2.865581
v -0.973602 0.073066 2.865158
v -0.968744 0.071400 2.865553
v -0.972824 0.068120 2.865192
v -0.965953 0.067144 2.865639
v -0.969873 0.063460 2.865279
v -0.961902 0.064272 2.865844
v -0.965337 0.060382 2.865507
v -0.956715 0.062631 2.866102
v -0.960584 0.058883 2.865751
v -0.955381 0.061498 2.866186
v -0.959776 0.058300 2.865823
v -0.954790 0.059706 2.866222
v -0.959487 0.057280 2.865858
v -0.954259 -0.007781 2.865153
v -0.959101 -0.007905 2.864828
v -0.954136 -0.040766 2.864903
v -0.959060 -0.038846 2.864622
v -0.959054 -0.042128 2.864591
v -0.953966 -0.086049 2.864560
v -0.959000 -0.083265 2.864316
v -0.976692 -0.101312 2.861905
v -0.974817 -0.106332 2.862038
v -0.975343 -0.101003 2.862170
v -0.971853 -0.106244 2.862672
v -0.974029 -0.100230 2.862487
v -0.970195 -0.104741 2.863005
v -0.972417 -0.095469 2.862877
v -0.968152 -0.099554 2.863501
v -0.969590 -0.091236 2.863527
v -0.965504 -0.095745 2.864093
v -0.965188 -0.087928 2.864043
v -0.961971 -0.092827 2.864230
v -0.960363 -0.085864 2.864204
v -0.956772 -0.090583 2.864450
v -0.959311 -0.084921 2.864250
v -0.954739 -0.088588 2.864500
vt 0.181999 0.504542
vt 0.180951 0.505724
vt 0.179923 0.505323
vt 0.180883 0.504133
vt 0.178803 0.504403
vt 0.179836 0.503287
vt 0.178214 0.503030
vt 0.179311 0.502048
vt 0.177976 0.501513
vt 0.179077 0.500474
vt 0.177772 0.501117
vt 0.178657 0.499756
vt 0.177341 0.500991
vt 0.177913 0.499530
vt 0.182581 0.504967
vt 0.181363 0.506008
vt 0.182704 0.505717
vt 0.181413 0.506627
vt 0.182604 0.530618
vt 0.181265 0.530557
vt 0.179723 0.554848
vt 0.178458 0.554087
vt 0.179753 0.553414
vt 0.178503 0.552629
vt 0.180057 0.552204
vt 0.178872 0.551240
vt 0.180788 0.551406
vt 0.179831 0.550201
vt 0.181954 0.550848
vt 0.180908 0.549549
vt 0.182335 0.550391
vt 0.181056 0.549415
vt 0.182415 0.549773
vt 0.181115 0.549208
vt 0.175832 0.500996
vt 0.176226 0.499531
vt 0.165197 0.500997
vt 0.164686 0.499529
vt 0.164448 0.500998
vt 0.155591 0.501019
vt 0.155671 0.499545
vt 0.150540 0.501075
vt 0.150540 0.499556
vt 0.179480 0.555551
vt 0.178308 0.554354
vt 0.178763 0.556017
vt 0.178048 0.554533
vt 0.175653 0.556042
vt 0.175258 0.554575
vt 0.163368 0.556005
vt 0.162402 0.554578
vt 0.161514 0.554579
vt 0.154764 0.556016
vt 0.154714 0.554586
vt 0.149764 0.556011
vt 0.149799 0.554576
vt 0.147705 0.556041
vt 0.147805 0.554612
vt 0.147595 0.555914
vt 0.147742 0.554532
vt 0.147587 0.555325
vt 0.147716 0.554285
vt 0.147595 0.553777
vt 0.147705 0.552777
vt 0.147569 0.552479
vt 0.147679 0.551355
vt 0.147506 0.551603
vt 0.147609 0.550416
vt 0.147428 0.551102
vt 0.147535 0.549959
vt 0.147402 0.550756
vt 0.147513 0.549781
vt 0.147391 0.550210
vt 0.147502 0.549470
vt 0.147717 0.529622
vt 0.147816 0.529584
vt 0.147794 0.519559
vt 0.147880 0.520145
vt 0.147889 0.519143
vt 0.147898 0.505745
vt 0.147973 0.506594
vt 0.148708 0.501088
vt 0.148668 0.499557
vt 0.148627 0.501183
vt 0.148474 0.499584
vt 0.148531 0.501418
vt 0.148373 0.500042
vt 0.148412 0.502871
vt 0.148221 0.501625
vt 0.148213 0.504162
vt 0.148041 0.502787
vt 0.148056 0.505171
vt 0.147999 0.503677
vt 0.148007 0.505801
vt 0.147932 0.504361
vt 0.147993 0.506089
vt 0.147917 0.504970
vt 0.180951 0.505724
vt 0.181999 0.504542
vt 0.179923 0.505323
vt 0.180883 0.504133
vt 0.178803 0.504403
vt 0.179836 0.503287
vt 0.178214 0.503030
vt 0.179311 0.502048
vt 0.177976 0.501513
vt 0.179077 0.500474
vt 0.177772 0.501117
vt 0.178657 0.499756
vt 0.177341 0.500991
vt 0.177913 0.499530
vt 0.182581 0.504967
vt 0.181363 0.506008
vt 0.182704 0.505717
vt 0.181413 0.506627
vt 0.182604 0.530618
vt 0.181265 0.530557
vt 0.178458 0.554087
vt 0.179723 0.554848
vt 0.179753 0.553414
vt 0.178503 0.552629
vt 0.180057 0.552204
vt 0.178872 0.551240
vt 0.180788 0.551406
vt 0.179831 0.550201
vt 0.181954 0.550848
vt 0.180908 0.549549
vt 0.182335 0.550391
vt 0.181056 0.549415
vt 0.182415 0.549773
vt 0.181115 0.549208
vt 0.175832 0.500996
vt 0.176226 0.499531
vt 0.165197 0.500997
vt 0.164686 0.499529
vt 0.164448 0.500998
vt 0.155591 0.501019
vt 0.155671 0.499545
vt 0.150540 0.501075
vt 0.150540 0.499556
vt 0.179480 0.555551
vt 0.178308 0.554354
vt 0.178763 0.556017
vt 0.178048 0.554533
vt 0.175653 0.556042
vt 0.175258 0.554575
vt 0.163368 0.556005
vt 0.162402 0.554578
vt 0.161514 0.554579
vt 0.154764 0.556016
vt 0.154714 0.554586
vt 0.149764 0.556011
vt 0.149799 0.554576
vt 0.147705 0.556041
vt 0.147805 0.554612
vt 0.147595 0.555914
vt 0.147742 0.554532
vt 0.147587 0.555325
vt 0.147716 0.554285
vt 0.147595 0.553777
vt 0.147705 0.552777
vt 0.147569 0.552479
vt 0.147679 0.551355
vt 0.147506 0.551603
vt 0.147609 0.550416
vt 0.147428 0.551102
vt 0.147535 0.549959
vt 0.147402 0.550756
vt 0.147513 0.549781
vt 0.147391 0.550210
vt 0.147502 0.549470
vt 0.147717 0.529622
vt 0.147816 0.529584
vt 0.147794 0.519559
vt 0.147880 0.520145
vt 0.147889 0.519143
vt 0.147898 0.505745
vt 0.147973 0.506594
vt 0.148708 0.501088
vt 0.148668 0.499557
vt 0.148627 0.501183
vt 0.148474 0.499584
vt 0.148531 0.501418
vt 0.148373 0.500042
vt 0.148412 0.502871
vt 0.148221 0.501625
vt 0.148213 0.504162
vt 0.148041 0.502787
vt 0.148056 0.505171
vt 0.147999 0.503677
vt 0.148007 0.505801
vt 0.147932 0.504361
vt 0.147993 0.506089
vt 0.147917 0.504970
vn 0.9944 -0.0683 0.0801
vn 0.9958 -0.0546 0.0729
vn 0.9943 -0.0674 0.0827
vn 0.9956 -0.0429 0.0834
vn 0.9952 -0.0311 0.0924
vn 0.9950 -0.0350 0.0935
vn 0.9951 -0.0484 0.0862
vn 0.9962 -0.0558 0.0675
vn 0.9956 -0.0649 0.0677
vn 0.9949 -0.0685 0.0734
vn 0.9946 -0.0673 0.0792
vn 0.9955 -0.0530 0.0781
vn 0.9956 -0.0535 0.0773
vn 0.9957 -0.0513 0.0777
vn 0.9961 -0.0489 0.0732
vn 0.9955 -0.0548 0.0770
vn 0.9946 -0.0661 0.0795
vn 0.9938 -0.0651 0.0902
vn 0.9940 -0.0369 0.1029
vn 0.9945 -0.0165 0.1035
vn 0.9979 0.0109 0.0634
vn 0.9979 0.0099 0.0646
vn 0.9976 0.0125 0.0674
vn 0.9976 0.0136 0.0672
vn 0.9976 0.0179 0.0663
vn 0.9976 0.0231 0.0650
vn 0.9976 0.0250 0.0643
vn 0.9979 0.0181 0.0621
vn 0.9978 0.0132 0.0644
vn 0.9972 0.0203 0.0716
vn 0.9970 0.0236 0.0734
vn 0.9972 0.0138 0.0732
vn 0.9966 0.0009 0.0822
vn 0.9974 -0.0071 0.0721
vn 0.9908 -0.0451 0.1276
vn 0.9821 -0.0628 0.1776
vn 0.9510 -0.0308 0.3077
vn 0.8959 -0.0103 0.4441
vn 0.8965 0.0097 0.4429
vn 0.7314 -0.0029 0.6819
vn 0.6218 -0.0235 0.7828
vn 0.4073 -0.0230 0.9130
vn 0.3063 -0.0195 0.9517
vn 0.9978 0.0106 0.0653
vn 0.9975 0.0140 0.0691
vn 0.9973 0.0173 0.0718
vn 0.9973 0.0151 0.0722
vn 0.9901 0.0123 0.1400
vn 0.9771 0.0551 0.2057
vn 0.8657 0.2706 0.4211
vn 0.8451 0.2014 0.4952
vn 0.7852 0.1534 0.6000
vn 0.6928 0.1013 0.7140
vn 0.5882 -0.0492 0.8072
vn 0.3915 -0.0243 0.9198
vn 0.2978 -0.0112 0.9546
vn 0.1954 -0.0108 0.9807
vn 0.1927 -0.0092 0.9812
vn 0.1595 -0.0238 0.9869
vn 0.1358 -0.0104 0.9907
vn 0.0999 -0.0159 0.9949
vn 0.0870 0.0013 0.9962
vn 0.0675 -0.0129 0.9976
vn 0.0576 -0.0117 0.9983
vn 0.0566 -0.0145 0.9983
vn 0.0584 -0.0143 0.9982
vn 0.0586 -0.0148 0.9982
vn 0.0574 -0.0160 0.9982
vn 0.0602 -0.0125 0.9981
vn 0.0664 -0.0005 0.9978
vn 0.0685 0.0045 0.9976
vn 0.0650 0.0120 0.9978
vn 0.0567 0.0002 0.9984
vn 0.0501 -0.0048 0.9987
vn 0.0445 -0.0134 0.9989
vn 0.0375 -0.0102 0.9992
vn 0.0327 -0.0079 0.9994
vn 0.0528 -0.0084 0.9986
vn 0.0522 0.0029 0.9986
vn 0.0212 -0.0110 0.9997
vn 0.0255 -0.0188 0.9995
vn 0.1984 -0.0173 0.9800
vn 0.2015 -0.0108 0.9794
vn 0.2095 -0.0103 0.9778
vn 0.2096 -0.0090 0.9777
vn 0.2040 -0.0124 0.9789
vn 0.1961 -0.0132 0.9805
vn 0.2006 -0.0145 0.9796
vn 0.2023 -0.0147 0.9792
vn 0.1815 0.0013 0.9834
vn 0.1226 0.0007 0.9925
vn 0.0645 0.0003 0.9979
vn 0.0309 -0.0126 0.9994
vn 0.0353 -0.0090 0.9993
vn 0.0334 -0.0049 0.9994
vn 0.0346 -0.0136 0.9993
vn 0.0278 -0.0181 0.9995
vn -0.9958 -0.0545 0.0730
vn -0.9944 -0.0682 0.0801
vn -0.9943 -0.0673 0.0827
vn -0.9956 -0.0428 0.0835
vn -0.9952 -0.0310 0.0925
vn -0.9950 -0.0349 0.0937
vn -0.9951 -0.0484 0.0863
vn -0.9962 -0.0558 0.0676
vn -0.9956 -0.0649 0.0678
vn -0.9949 -0.0684 0.0735
vn -0.9946 -0.0671 0.0794
vn -0.9955 -0.0529 0.0783
vn -0.9956 -0.0534 0.0774
vn -0.9957 -0.0511 0.0777
vn -0.9961 -0.0488 0.0733
vn -0.9955 -0.0546 0.0771
vn -0.9946 -0.0662 0.0796
vn -0.9938 -0.0650 0.0903
vn -0.9940 -0.0369 0.1030
vn -0.9945 -0.0165 0.1036
vn -0.9979 0.0099 0.0647
vn -0.9979 0.0108 0.0636
vn -0.9976 0.0125 0.0675
vn -0.9976 0.0136 0.0673
vn -0.9976 0.0179 0.0664
vn -0.9976 0.0230 0.0651
vn -0.9976 0.0248 0.0644
vn -0.9979 0.0180 0.0622
vn -0.9978 0.0131 0.0645
vn -0.9972 0.0201 0.0717
vn -0.9970 0.0235 0.0735
vn -0.9972 0.0135 0.0733
vn -0.9966 0.0009 0.0823
vn -0.9974 -0.0073 0.0723
vn -0.9908 -0.0450 0.1276
vn -0.9821 -0.0627 0.1775
vn -0.9510 -0.0305 0.3076
vn -0.8961 -0.0101 0.4437
vn -0.8964 0.0098 0.4432
vn -0.7313 -0.0029 0.6820
vn -0.6219 -0.0235 0.7828
vn -0.4073 -0.0231 0.9130
vn -0.3064 -0.0196 0.9517
vn -0.9978 0.0105 0.0655
vn -0.9975 0.0139 0.0692
vn -0.9973 0.0171 0.0718
vn -0.9973 0.0149 0.0722
vn -0.9901 0.0121 0.1401
vn -0.9771 0.0550 0.2057
vn -0.8657 0.2706 0.4211
vn -0.8448 0.2006 0.4960
vn -0.7852 0.1535 0.6000
vn -0.6927 0.1012 0.7141
vn -0.5883 -0.0491 0.8072
vn -0.3915 -0.0242 0.9199
vn -0.2978 -0.0111 0.9546
vn -0.1954 -0.0108 0.9807
vn -0.1927 -0.0093 0.9812
vn -0.1595 -0.0238 0.9869
vn -0.1358 -0.0103 0.9907
vn -0.0998 -0.0157 0.9949
vn -0.0870 0.0014 0.9962
vn -0.0675 -0.0129 0.9976
vn -0.0576 -0.0117 0.9983
vn -0.0566 -0.0146 0.9983
vn -0.0584 -0.0143 0.9982
vn -0.0586 -0.0149 0.9982
vn -0.0574 -0.0160 0.9982
vn -0.0602 -0.0127 0.9981
vn -0.0664 -0.0005 0.9978
vn -0.0685 0.0043 0.9976
vn -0.0651 0.0119 0.9978
vn -0.0567 0.0002 0.9984
vn -0.0501 -0.0048 0.9987
vn -0.0445 -0.0134 0.9989
vn -0.0375 -0.0102 0.9992
vn -0.0327 -0.0079 0.9994
vn -0.0528 -0.0084 0.9986
vn -0.0522 0.0029 0.9986
vn -0.0212 -0.0109 0.9997
vn -0.0256 -0.0189 0.9995
vn -0.1985 -0.0173 0.9800
vn -0.2015 -0.0109 0.9794
vn -0.2095 -0.0102 0.9777
vn -0.2096 -0.0090 0.9777
vn -0.2040 -0.0124 0.9789
vn -0.1961 -0.0132 0.9805
vn -0.2006 -0.0145 0.9796
vn -0.2023 -0.0147 0.9792
vn -0.1815 0.0012 0.9834
vn -0.1226 0.0007 0.9925
vn -0.0645 0.0003 0.9979
vn -0.0309 -0.0127 0.9994
vn -0.0354 -0.0090 0.9993
vn -0.0334 -0.0050 0.9994
vn -0.0347 -0.0136 0.9993
vn -0.0278 -0.0181 0.9994
usemtl chassis.6
s 1
f 1/1/1 2/2/2 3/3/3
f 1/1/1 3/3/3 4/4/4
f 4/4/4 3/3/3 5/5/5
f 4/4/4 5/5/5 6/6/6
f 6/6/6 5/5/5 7/7/7
f 6/6/6 7/7/7 8/8/8
f 8/8/8 7/7/7 9/9/9
f 8/8/8 9/9/9 10/10/10
f 10/10/10 9/9/9 11/11/11
f 10/10/10 11/11/11 12/12/12
f 12/12/12 11/11/11 13/13/13
f 12/12/12 13/13/13 14/14/14
f 2/2/2 1/1/1 15/15/15
f 2/2/2 15/15/15 16/16/16
f 16/16/16 15/15/15 17/17/17
f 16/16/16 17/17/17 18/18/18
f 18/18/18 17/17/17 19/19/19
f 18/18/18 19/19/19 20/20/20
f 21/21/21 22/22/22 23/23/23
f 23/23/23 22/22/22 24/24/24
f 23/23/23 24/24/24 25/25/25
f 25/25/25 24/24/24 26/26/26
f 25/25/25 26/26/26 27/27/27
f 27/27/27 26/26/26 28/28/28
f 27/27/27 28/28/28 29/29/29
f 29/29/29 28/28/28 30/30/30
f 29/29/29 30/30/30 31/31/31
f 31/31/31 30/30/30 32/32/32
f 31/31/31 32/32/32 33/33/33
f 33/33/33 32/32/32 34/34/34
f 33/33/33 34/34/34 20/20/20
f 20/20/20 19/19/19 33/33/33
f 14/14/14 13/13/13 35/35/35
f 14/14/14 35/35/35 36/36/36
f 36/36/36 35/35/35 37/37/37
f 38/38/38 37/37/37 39/39/39
f 36/36/36 37/37/37 38/38/38
f 38/38/38 39/39/39 40/40/40
f 38/38/38 40/40/40 41/41/41
f 41/41/41 40/40/40 42/42/42
f 41/41/41 42/42/42 43/43/43
f 22/22/22 21/21/21 44/44/44
f 22/22/22 44/44/44 45/45/45
f 45/45/45 44/44/44 46/46/46
f 45/45/45 46/46/46 47/47/47
f 47/47/47 46/46/46 48/48/48
f 47/47/47 48/48/48 49/49/49
f 49/49/49 48/48/48 50/50/50
f 49/49/49 50/50/50 51/51/51
f 52/52/52 50/50/50 53/53/53
f 51/51/51 50/50/50 52/52/52
f 52/52/52 53/53/53 54/54/54
f 54/54/54 53/53/53 55/55/55
f 54/54/54 55/55/55 56/56/56
f 56/56/56 55/55/55 57/57/57
f 56/56/56 57/57/57 58/58/58
f 58/58/58 57/57/57 59/59/59
f 58/58/58 59/59/59 60/60/60
f 60/60/60 59/59/59 61/61/61
f 60/60/60 61/61/61 62/62/62
f 62/62/62 61/61/61 63/63/63
f 62/62/62 63/63/63 64/64/64
f 64/64/64 63/63/63 65/65/65
f 64/64/64 65/65/65 66/66/66
f 66/66/66 65/65/65 67/67/67
f 66/66/66 67/67/67 68/68/68
f 68/68/68 67/67/67 69/69/69
f 68/68/68 69/69/69 70/70/70
f 70/70/70 69/69/69 71/71/71
f 70/70/70 71/71/71 72/72/72
f 72/72/72 71/71/71 73/73/73
f 72/72/72 73/73/73 74/74/74
f 74/74/74 73/73/73 75/75/75
f 74/74/74 75/75/75 76/76/76
f 76/76/76 75/75/75 77/77/77
f 78/78/78 77/77/77 79/79/79
f 76/76/76 77/77/77 78/78/78
f 79/79/79 80/80/80 81/81/81
f 77/77/77 80/80/80 79/79/79
f 43/43/43 42/42/42 82/82/82
f 43/43/43 82/82/82 83/83/83
f 83/83/83 82/82/82 84/84/84
f 83/83/83 84/84/84 85/85/85
f 85/85/85 84/84/84 86/86/86
f 85/85/85 86/86/86 87/87/87
f 87/87/87 86/86/86 88/88/88
f 87/87/87 88/88/88 89/89/89
f 89/89/89 88/88/88 90/90/90
f 89/89/89 90/90/90 91/91/91
f 91/91/91 90/90/90 92/92/92
f 91/91/91 92/92/92 93/93/93
f 93/93/93 92/92/92 94/94/94
f 93/93/93 94/94/94 95/95/95
f 95/95/95 94/94/94 96/96/96
f 95/95/95 96/96/96 97/97/97
f 97/97/97 96/96/96 81/81/81
f 97/97/97 81/81/81 80/80/80
f 99/98/98 98/99/99 100/100/100
f 100/100/100 98/99/99 101/101/101
f 100/100/100 101/101/101 102/102/102
f 102/102/102 101/101/101 103/103/103
f 102/102/102 103/103/103 104/104/104
f 104/104/104 103/103/103 105/105/105
f 104/104/104 105/105/105 106/106/106
f 106/106/106 105/105/105 107/107/107
f 106/106/106 107/107/107 108/108/108
f 108/108/108 107/107/107 109/109/109
f 108/108/108 109/109/109 110/110/110
f 110/110/110 109/109/109 111/111/111
f 98/99/99 99/98/98 112/112/112
f 112/112/112 99/98/98 113/113/113
f 112/112/112 113/113/113 114/114/114
f 114/114/114 113/113/113 115/115/115
f 114/114/114 115/115/115 116/116/116
f 116/116/116 115/115/115 117/117/117
f 119/118/118 118/119/119 120/120/120
f 119/118/118 120/120/120 121/121/121
f 121/121/121 120/120/120 122/122/122
f 121/121/121 122/122/122 123/123/123
f 123/123/123 122/122/122 124/124/124
f 123/123/123 124/124/124 125/125/125
f 125/125/125 124/124/124 126/126/126
f 125/125/125 126/126/126 127/127/127
f 127/127/127 126/126/126 128/128/128
f 127/127/127 128/128/128 129/129/129
f 129/129/129 128/128/128 130/130/130
f 129/129/129 130/130/130 131/131/131
f 131/131/131 130/130/130 117/117/117
f 116/116/116 117/117/117 130/130/130
f 110/110/110 111/111/111 132/132/132
f 132/132/132 111/111/111 133/133/133
f 132/132/132 133/133/133 134/134/134
f 134/134/134 135/135/135 136/136/136
f 134/134/134 133/133/133 135/135/135
f 136/136/136 135/135/135 137/137/137
f 137/137/137 135/135/135 138/138/138
f 137/137/137 138/138/138 139/139/139
f 139/139/139 138/138/138 140/140/140
f 118/119/119 119/118/118 141/141/141
f 141/141/141 119/118/118 142/142/142
f 141/141/141 142/142/142 143/143/143
f 143/143/143 142/142/142 144/144/144
f 143/143/143 144/144/144 145/145/145
f 145/145/145 144/144/144 146/146/146
f 145/145/145 146/146/146 147/147/147
f 147/147/147 146/146/146 148/148/148
f 147/147/147 149/149/149 150/150/150
f 147/147/147 148/148/148 149/149/149
f 150/150/150 149/149/149 151/151/151
f 150/150/150 151/151/151 152/152/152
f 152/152/152 151/151/151 153/153/153
f 152/152/152 153/153/153 154/154/154
f 154/154/154 153/153/153 155/155/155
f 154/154/154 155/155/155 156/156/156
f 156/156/156 155/155/155 157/157/157
f 156/156/156 157/157/157 158/158/158
f 158/158/158 157/157/157 159/159/159
f 158/158/158 159/159/159 160/160/160
f 160/160/160 159/159/159 161/161/161
f 160/160/160 161/161/161 162/162/162
f 162/162/162 161/161/161 163/163/163
f 162/162/162 163/163/163 164/164/164
f 164/164/164 163/163/163 165/165/165
f 164/164/164 165/165/165 166/166/166
f 166/166/166 165/165/165 167/167/167
f 166/166/166 167/167/167 168/168/168
f 168/168/168 167/167/167 169/169/169
f 168/168/168 169/169/169 170/170/170
f 170/170/170 169/169/169 171/171/171
f 170/170/170 171/171/171 172/172/172
f 172/172/172 171/171/171 173/173/173
f 172/172/172 173/173/173 174/174/174
f 174/174/174 175/175/175 176/176/176
f 174/174/174 173/173/173 175/175/175
f 177/177/177 176/176/176 178/178/178
f 177/177/177 174/174/174 176/176/176
f 139/139/139 140/140/140 179/179/179
f 179/179/179 140/140/140 180/180/180
f 179/179/179 180/180/180 181/181/181
f 181/181/181 180/180/180 182/182/182
f 181/181/181 182/182/182 183/183/183
f 183/183/183 182/182/182 184/184/184
f 183/183/183 184/184/184 185/185/185
f 185/185/185 184/184/184 186/186/186
f 185/185/185 186/186/186 187/187/187
f 187/187/187 186/186/186 188/188/188
f 187/187/187 188/188/188 189/189/189
f 189/189/189 188/188/188 190/190/190
f 189/189/189 190/190/190 191/191/191
f 191/191/191 190/190/190 192/192/192
f 191/191/191 192/192/192 193/193/193
f 193/193/193 192/192/192 194/194/194
f 193/193/193 194/194/194 178/178/178
f 178/178/178 194/194/194 177/177/177
