# Blender v2.93.5 OBJ File: 'Check Dat Out!.blend'
# www.blender.org
mtllib body7.mtl
o body7_frame.002
v -0.933629 -0.224916 2.596479
v -0.934416 -0.185535 2.628527
v -0.935284 -0.142157 2.654908
v -0.936215 -0.095592 2.675138
v -0.921776 -0.226211 2.598127
v -0.922568 -0.186592 2.630366
v -0.923440 -0.142953 2.656918
v -0.924378 -0.096107 2.677253
v -0.839179 -0.229986 2.603937
v -0.839988 -0.189526 2.636861
v -0.840878 -0.144959 2.663975
v -0.841836 -0.097118 2.684752
v -0.745009 -0.221142 2.596480
v -0.745795 -0.181760 2.628530
v -0.746663 -0.138382 2.654917
v -0.747595 -0.091817 2.675139
v -0.756800 -0.222909 2.598119
v -0.757595 -0.183290 2.630358
v -0.758466 -0.139651 2.656909
v -0.759405 -0.092805 2.677259
v -0.932935 -0.259569 2.559377
v -0.933629 -0.224916 2.596479
v -0.934416 -0.185535 2.628527
v -0.935284 -0.142157 2.654908
v -0.921078 -0.261072 2.560801
v -0.921776 -0.226211 2.598127
v -0.922568 -0.186592 2.630366
v -0.923440 -0.142953 2.656918
v -0.838467 -0.265588 2.565810
v -0.839179 -0.229986 2.603937
v -0.839988 -0.189526 2.636861
v -0.840878 -0.144959 2.663975
v -0.744316 -0.255794 2.559369
v -0.745009 -0.221142 2.596480
v -0.745795 -0.181760 2.628530
v -0.746663 -0.138382 2.654917
v -0.756104 -0.257770 2.560792
v -0.756800 -0.222909 2.598119
v -0.757595 -0.183290 2.630358
v -0.758466 -0.139651 2.656909
v -1.012823 -0.167063 -2.859586
v -1.010660 -0.168452 -2.857158
v -1.010533 -0.200888 -2.859205
v -1.008529 -0.199461 -2.857071
v -1.054098 -0.200508 -2.681214
v -1.050937 -0.199125 -2.681769
v -1.056901 -0.166783 -2.674299
v -1.053740 -0.167931 -2.675007
v -1.010533 -0.200888 -2.859205
v -1.008529 -0.199461 -2.857071
v -1.030174 -0.200403 -2.777794
v -1.027701 -0.199271 -2.777433
v -1.042228 -0.200561 -2.721688
v -1.039831 -0.199342 -2.720737
v -1.048599 -0.200690 -2.691376
v -1.046149 -0.199553 -2.690753
v -1.054098 -0.200508 -2.681214
v -1.050937 -0.199125 -2.681769
v -1.056901 -0.166783 -2.674299
v -1.053740 -0.167931 -2.675007
v -1.051459 -0.166827 -2.686090
v -1.048796 -0.168118 -2.685794
v -1.045905 -0.166762 -2.715665
v -1.043235 -0.168080 -2.715364
v -1.032833 -0.166798 -2.778072
v -1.030171 -0.168118 -2.777610
v -1.012823 -0.167063 -2.859586
v -1.010660 -0.168452 -2.857158
v 1.012803 -0.167063 -2.859586
v 1.010639 -0.168452 -2.857158
v 1.010512 -0.200888 -2.859205
v 1.008508 -0.199461 -2.857071
v 1.054076 -0.200508 -2.681214
v 1.050915 -0.199125 -2.681769
v 1.056879 -0.166783 -2.674299
v 1.053718 -0.167931 -2.675007
v 1.010512 -0.200888 -2.859205
v 1.008508 -0.199461 -2.857071
v 1.030153 -0.200403 -2.777794
v 1.027680 -0.199271 -2.777433
v 1.042206 -0.200561 -2.721688
v 1.039810 -0.199342 -2.720737
v 1.048577 -0.200690 -2.691376
v 1.046128 -0.199553 -2.690753
v 1.054076 -0.200508 -2.681214
v 1.050915 -0.199125 -2.681769
v 1.056879 -0.166783 -2.674299
v 1.053718 -0.167931 -2.675007
v 1.051437 -0.166827 -2.686090
v 1.048775 -0.168118 -2.685794
v 1.045883 -0.166762 -2.715665
v 1.043213 -0.168080 -2.715364
v 1.032811 -0.166798 -2.778072
v 1.030150 -0.168118 -2.777610
v 1.012803 -0.167063 -2.859586
v 1.010639 -0.168452 -2.857158
vt 0.659662 0.605051
vt 0.659662 0.525422
vt 0.641747 0.525422
vt 0.641747 0.605051
vt 0.660964 0.605261
vt 0.660964 0.524974
vt 0.640341 0.524974
vt 0.640341 0.605261
vt 0.659662 0.605051
vt 0.659662 0.525422
vt 0.641747 0.525422
vt 0.641747 0.605051
vt 0.660964 0.605261
vt 0.660964 0.524974
vt 0.640341 0.524974
vt 0.640341 0.605261
vt 0.498636 0.525422
vt 0.498636 0.605051
vt 0.498511 0.524974
vt 0.498511 0.605261
vt 0.498636 0.525422
vt 0.498636 0.605051
vt 0.498511 0.524974
vt 0.498511 0.605261
vt 0.659662 0.525422
vt 0.659662 0.605051
vt 0.641747 0.525422
vt 0.641747 0.605051
vt 0.660964 0.524974
vt 0.660964 0.605261
vt 0.640341 0.524974
vt 0.640341 0.605261
vt 0.659662 0.525422
vt 0.659662 0.605051
vt 0.641747 0.525422
vt 0.641747 0.605051
vt 0.660964 0.524974
vt 0.660964 0.605261
vt 0.640341 0.524974
vt 0.640341 0.605261
vt 0.523550 0.211946
vt 0.524485 0.212481
vt 0.524339 0.199449
vt 0.523516 0.199999
vt 0.455976 0.200128
vt 0.455762 0.199596
vt 0.453098 0.212589
vt 0.453371 0.212147
vt 0.523516 0.199999
vt 0.524339 0.199449
vt 0.492973 0.199636
vt 0.492833 0.200072
vt 0.471356 0.199575
vt 0.470990 0.200045
vt 0.459678 0.199526
vt 0.459437 0.199964
vt 0.455762 0.199596
vt 0.455976 0.200128
vt 0.453371 0.212147
vt 0.453098 0.212589
vt 0.457641 0.212572
vt 0.457527 0.212075
vt 0.469036 0.212597
vt 0.468919 0.212089
vt 0.493080 0.212583
vt 0.492902 0.212075
vt 0.524485 0.212481
vt 0.523550 0.211946
vt 0.524485 0.212481
vt 0.523550 0.211946
vt 0.524339 0.199449
vt 0.523516 0.199999
vt 0.455762 0.199596
vt 0.455976 0.200128
vt 0.453098 0.212589
vt 0.453371 0.212147
vt 0.524339 0.199449
vt 0.523516 0.199999
vt 0.492973 0.199636
vt 0.492833 0.200072
vt 0.471356 0.199575
vt 0.470990 0.200045
vt 0.459678 0.199526
vt 0.459437 0.199964
vt 0.455762 0.199596
vt 0.455976 0.200128
vt 0.453098 0.212589
vt 0.453371 0.212147
vt 0.457641 0.212572
vt 0.457527 0.212075
vt 0.469036 0.212597
vt 0.468919 0.212089
vt 0.493080 0.212583
vt 0.492902 0.212075
vt 0.524485 0.212481
vt 0.523550 0.211946
vn -0.7486 -0.4493 0.4876
vn -0.7455 -0.5442 0.3848
vn 0.1102 -0.9339 0.3401
vn 0.1009 -0.4020 0.9101
vn -0.7487 -0.4493 0.4875
vn -0.7501 -0.3788 0.5421
vn -0.7467 -0.4869 0.4533
vn 0.1096 -0.8787 0.4646
vn 0.1092 -0.8789 0.4643
vn 0.0978 -0.2740 0.9567
vn -0.7500 -0.3788 0.5422
vn -0.7516 -0.3016 0.5866
vn -0.7480 -0.4208 0.5133
vn 0.1077 -0.8075 0.5800
vn 0.1108 -0.8057 0.5819
vn 0.0974 -0.1433 0.9849
vn -0.7518 -0.3013 0.5865
vn -0.7534 -0.2189 0.6200
vn -0.7496 -0.3471 0.5636
vn 0.1088 -0.7190 0.6864
vn 0.1040 -0.7221 0.6839
vn 0.0922 -0.0050 0.9957
vn -0.7532 -0.2193 0.6202
vn -0.3417 -0.3664 0.8654
vn -0.3297 -0.8954 0.2992
vn 0.3570 -0.8028 0.4775
vn 0.3572 -0.8025 0.4779
vn 0.2690 -0.4324 0.8606
vn -0.3412 -0.3663 0.8657
vn -0.3436 -0.2451 0.9066
vn -0.3308 -0.8464 0.4173
vn 0.3557 -0.7299 0.5837
vn 0.2666 -0.3112 0.9122
vn -0.3458 -0.1195 0.9307
vn -0.3325 -0.7816 0.5278
vn 0.3542 -0.6433 0.6788
vn 0.3542 -0.6434 0.6787
vn 0.2638 -0.1839 0.9469
vn -0.3460 -0.1195 0.9306
vn -0.3497 0.0079 0.9368
vn -0.3331 -0.7029 0.6285
vn 0.3515 -0.5461 0.7604
vn 0.3518 -0.5455 0.7607
vn 0.2617 -0.0536 0.9636
vn -0.3489 0.0083 0.9371
vn 0.7667 -0.5139 0.3848
vn 0.7660 -0.4189 0.4876
vn -0.0729 -0.9376 0.3401
vn -0.0834 -0.4046 0.9107
vn -0.0715 -0.9380 0.3390
vn 0.7659 -0.4190 0.4876
vn 0.7654 -0.4567 0.4534
vn 0.7645 -0.3486 0.5423
vn -0.0730 -0.8831 0.4635
vn -0.0846 -0.2758 0.9575
vn -0.0716 -0.8837 0.4626
vn 0.7644 -0.3487 0.5422
vn 0.7640 -0.3906 0.5136
vn 0.7629 -0.2714 0.5868
vn -0.0732 -0.8124 0.5784
vn -0.0878 -0.1436 0.9857
vn -0.0745 -0.8118 0.5792
vn 0.7629 -0.2714 0.5867
vn 0.7626 -0.3169 0.5639
vn 0.7613 -0.1889 0.6203
vn -0.0753 -0.7257 0.6839
vn -0.0923 -0.0095 0.9957
vn -0.0770 -0.7247 0.6848
vn 0.7614 -0.1888 0.6201
vn 0.3650 -0.8817 0.2990
vn 0.3558 -0.3523 0.8656
vn -0.3246 -0.8164 0.4777
vn -0.2516 -0.4429 0.8605
vn -0.3248 -0.8161 0.4780
vn 0.3553 -0.3522 0.8659
vn 0.3641 -0.8327 0.4172
vn 0.3529 -0.2310 0.9067
vn -0.3262 -0.7435 0.5837
vn -0.2540 -0.3217 0.9121
vn -0.3263 -0.7434 0.5838
vn 0.3528 -0.2310 0.9067
vn 0.3632 -0.7679 0.5277
vn 0.3501 -0.1053 0.9308
vn -0.3282 -0.6568 0.6789
vn -0.2564 -0.1945 0.9468
vn -0.3281 -0.6569 0.6788
vn 0.3502 -0.1054 0.9307
vn 0.3612 -0.6890 0.6283
vn 0.3480 0.0223 0.9372
vn -0.3298 -0.5588 0.7609
vn -0.2594 -0.0640 0.9637
vn -0.3296 -0.5592 0.7607
vn 0.3484 0.0221 0.9371
vn -0.7359 -0.0455 0.6756
vn -0.7582 -0.0440 0.6506
vn -0.7354 -0.0455 0.6761
vn -0.7123 -0.0470 0.7003
vn -0.1950 0.1864 -0.9629
vn -0.2440 0.1753 -0.9538
vn -0.1949 0.1864 -0.9629
vn -0.1453 0.1971 -0.9696
vn -0.4445 0.8889 -0.1108
vn -0.4857 0.8655 -0.1223
vn -0.4311 0.8965 -0.1019
vn -0.4095 0.9078 -0.0910
vn -0.4179 0.9044 -0.0865
vn -0.4174 0.9048 -0.0846
vn -0.3987 0.9083 -0.1265
vn -0.3996 0.8973 -0.1875
vn -0.3961 0.8859 -0.2413
vn -0.4252 0.8646 -0.2678
vn -0.3917 -0.9041 -0.1706
vn -0.3695 -0.9141 -0.1671
vn -0.4042 -0.9037 -0.1412
vn -0.4253 -0.8979 -0.1135
vn -0.4330 -0.8973 -0.0862
vn -0.4331 -0.8972 -0.0866
vn -0.4290 -0.8982 -0.0957
vn -0.4355 -0.8947 -0.0993
vn -0.4391 -0.8924 -0.1044
vn -0.4496 -0.8868 -0.1066
vn 0.7582 -0.0440 0.6506
vn 0.7356 -0.0455 0.6759
vn 0.7356 -0.0455 0.6758
vn 0.7123 -0.0470 0.7003
vn 0.2440 0.1753 -0.9538
vn 0.1949 0.1864 -0.9629
vn 0.1453 0.1971 -0.9696
vn 0.4857 0.8655 -0.1223
vn 0.4444 0.8889 -0.1108
vn 0.4312 0.8965 -0.1020
vn 0.4099 0.9076 -0.0909
vn 0.4174 0.9046 -0.0864
vn 0.4170 0.9050 -0.0844
vn 0.3988 0.9083 -0.1263
vn 0.3996 0.8973 -0.1876
vn 0.3959 0.8860 -0.2412
vn 0.4252 0.8646 -0.2678
vn 0.3695 -0.9141 -0.1671
vn 0.3918 -0.9041 -0.1707
vn 0.4041 -0.9037 -0.1413
vn 0.4254 -0.8979 -0.1132
vn 0.4313 -0.8982 -0.0850
vn 0.4322 -0.8975 -0.0875
vn 0.4301 -0.8979 -0.0940
vn 0.4358 -0.8945 -0.0994
vn 0.4387 -0.8925 -0.1043
vn 0.4496 -0.8868 -0.1066
usemtl chassis_vlo.0
s 1
f 1/1/1 21/2/2 25/3/3
f 25/3/3 5/4/4 1/1/5
f 2/5/6 22/6/7 26/7/8
f 26/7/9 6/8/10 2/5/11
f 3/9/12 23/10/13 27/11/14
f 27/11/15 7/12/16 3/9/17
f 4/13/18 24/14/19 28/15/20
f 28/15/21 8/16/22 4/13/23
f 5/4/24 25/3/25 29/17/26
f 29/17/27 9/18/28 5/4/29
f 6/8/30 26/7/31 30/19/32
f 30/19/32 10/20/33 6/8/30
f 7/12/34 27/11/35 31/21/36
f 31/21/37 11/22/38 7/12/39
f 8/16/40 28/15/41 32/23/42
f 32/23/43 12/24/44 8/16/45
f 33/25/46 13/26/47 37/27/48
f 17/28/49 37/27/50 13/26/51
f 34/29/52 14/30/53 38/31/54
f 18/32/55 38/31/56 14/30/57
f 35/33/58 15/34/59 39/35/60
f 19/36/61 39/35/62 15/34/63
f 36/37/64 16/38/65 40/39/66
f 20/40/67 40/39/68 16/38/69
f 37/27/70 17/28/71 29/17/72
f 9/18/73 29/17/74 17/28/75
f 38/31/76 18/32/77 30/19/78
f 10/20/79 30/19/80 18/32/81
f 39/35/82 19/36/83 31/21/84
f 11/22/85 31/21/86 19/36/87
f 40/39/88 20/40/89 32/23/90
f 12/24/91 32/23/92 20/40/93
f 42/41/94 41/42/95 43/43/96
f 42/41/94 43/43/96 44/44/97
f 46/45/98 45/46/99 47/47/100
f 46/45/98 47/47/100 48/48/101
f 50/49/102 49/50/103 51/51/104
f 50/49/102 51/51/104 52/52/105
f 52/52/105 51/51/104 53/53/106
f 52/52/105 53/53/106 54/54/107
f 54/54/107 53/53/106 55/55/108
f 54/54/107 55/55/108 56/56/109
f 56/56/109 55/55/108 57/57/110
f 56/56/109 57/57/110 58/58/111
f 60/59/112 59/60/113 61/61/114
f 60/59/112 61/61/114 62/62/115
f 62/62/115 61/61/114 63/63/116
f 62/62/115 63/63/116 64/64/117
f 64/64/117 63/63/116 65/65/118
f 64/64/117 65/65/118 66/66/119
f 66/66/119 65/65/118 67/67/120
f 66/66/119 67/67/120 68/68/121
f 69/69/122 70/70/123 71/71/124
f 71/71/124 70/70/123 72/72/125
f 73/73/126 74/74/127 75/75/127
f 75/75/127 74/74/127 76/76/128
f 77/77/129 78/78/130 79/79/131
f 79/79/131 78/78/130 80/80/132
f 79/79/131 80/80/132 81/81/133
f 81/81/133 80/80/132 82/82/134
f 81/81/133 82/82/134 83/83/135
f 83/83/135 82/82/134 84/84/136
f 83/83/135 84/84/136 85/85/137
f 85/85/137 84/84/136 86/86/138
f 87/87/139 88/88/140 89/89/141
f 89/89/141 88/88/140 90/90/142
f 89/89/141 90/90/142 91/91/143
f 91/91/143 90/90/142 92/92/144
f 91/91/143 92/92/144 93/93/145
f 93/93/145 92/92/144 94/94/146
f 93/93/145 94/94/146 95/95/147
f 95/95/147 94/94/146 96/96/148
