# Blender v2.93.5 OBJ File: 'Check Dat Out!.blend'
# www.blender.org
mtllib body5.mtl
o body5_bump_front_ok.007
v -0.554308 -0.189195 -2.920584
v 0.000036 -0.189194 -2.948028
v 0.554803 -0.189195 -2.920584
v -0.554308 0.152080 -2.934763
v 0.000036 0.152080 -2.962206
v 0.554803 0.152080 -2.934763
vt 0.000000 1.000000
vt 0.000000 1.000000
vt 0.000000 1.000000
vt 0.000000 1.000000
vt 0.000000 1.000000
vt 0.000000 1.000000
vn -0.0000 -0.0415 -0.9991
vn -0.0494 -0.0415 -0.9979
vn 0.0494 -0.0415 -0.9979
usemtl glass.016
s 1
f 2/1/1 1/2/2 4/3/2
f 4/3/2 5/4/1 2/1/1
f 6/5/3 2/1/1 5/4/1
f 2/1/1 6/5/3 3/6/3
