# Blender v2.93.5 OBJ File: 'Check Dat Out!.blend'
# www.blender.org
mtllib windows2.mtl
o windows2_door_lf_ok
v -0.971582 0.434807 -1.027163
v -0.850976 0.855143 -0.339160
v -0.967316 0.511370 -0.467443
v -0.970124 0.509564 -0.279061
v -0.980697 0.465828 -0.284895
v -0.987782 0.434818 -0.303146
v -0.991763 0.416333 -0.335384
v -0.992714 0.409164 -0.393339
v -0.991930 0.409573 -0.466772
v -0.986525 0.409267 -0.821172
v -0.958835 0.511097 -0.814718
v -0.979289 0.409864 -1.011895
v -0.951715 0.511123 -0.977800
v -0.909623 0.655156 -0.929801
v -0.915927 0.655100 -0.807590
v -0.925326 0.657335 -0.467947
v -0.927531 0.657434 -0.291566
v -0.878658 0.797024 -0.305135
v -0.876213 0.797100 -0.467947
v -0.865571 0.796115 -0.800249
v -0.859532 0.796148 -0.882394
v -0.843926 0.833167 -0.870220
v -0.848106 0.836947 -0.799408
v -0.857870 0.838959 -0.467947
v -0.861887 0.835166 -0.317843
v -0.844134 0.866696 -0.373655
v -0.840768 0.871088 -0.419594
v -0.839401 0.872188 -0.467866
v -0.828695 0.868510 -0.798966
v -0.827479 0.863591 -0.859903
v -0.842569 0.831939 -0.893234
v -0.843107 0.829288 -0.902711
v -0.848944 0.811962 -0.929568
v -0.855637 0.793408 -0.951138
v -0.857849 0.796157 -0.905277
v -0.908439 0.655167 -0.952769
v -0.903465 0.655211 -1.049217
v -0.902563 0.654154 -1.062662
v -0.942078 0.509594 -1.173386
v -0.944992 0.511147 -1.131770
v -0.950680 0.511127 -1.001498
v -0.966122 0.435786 -1.161722
v -0.963024 0.440466 -1.182081
v -0.958835 0.450861 -1.194520
v -0.951387 0.474508 -1.194089
v 0.950681 0.511124 -1.001498
v 0.987784 0.434814 -0.303150
v 0.979292 0.409861 -1.011894
v 0.971583 0.434803 -1.027164
v 0.850980 0.855136 -0.339164
v 0.958836 0.450858 -1.194520
v 0.842576 0.831932 -0.893233
v 0.950681 0.511124 -1.001498
v 0.980700 0.465824 -0.284896
v 0.991766 0.416329 -0.335388
v 0.992715 0.409159 -0.393338
v 0.970126 0.509560 -0.279062
v 0.991931 0.409568 -0.466772
v 0.967317 0.511365 -0.467443
v 0.927538 0.657430 -0.291569
v 0.925328 0.657332 -0.467950
v 0.878665 0.797018 -0.305137
v 0.876214 0.797096 -0.467946
v 0.857877 0.838955 -0.467947
v 0.839405 0.872184 -0.467868
v 0.840775 0.871081 -0.419595
v 0.844139 0.866689 -0.373659
v 0.861891 0.835160 -0.317844
v 0.828695 0.868503 -0.798967
v 0.848113 0.836941 -0.799408
v 0.865579 0.796108 -0.800248
v 0.915928 0.655096 -0.807590
v 0.958836 0.511093 -0.814718
v 0.986533 0.409263 -0.821172
v 0.951720 0.511118 -0.977807
v 0.909624 0.655153 -0.929800
v 0.859532 0.796141 -0.882393
v 0.843934 0.833161 -0.870221
v 0.827479 0.863585 -0.859903
v 0.843107 0.829281 -0.902711
v 0.848952 0.811955 -0.929569
v 0.855639 0.793401 -0.951138
v 0.857849 0.796150 -0.905277
v 0.908440 0.655164 -0.952770
v 0.903471 0.655208 -1.049220
v 0.902570 0.654151 -1.062668
v 0.942085 0.509591 -1.173390
v 0.944993 0.511144 -1.131770
v 0.966123 0.435783 -1.161723
v 0.963025 0.440463 -1.182082
v 0.951387 0.474505 -1.194088
vt 0.347323 0.945510
vt 0.679202 0.901626
vt 0.344722 0.952186
vt 0.287039 0.952205
vt 0.287082 0.965136
vt 0.317193 0.952181
vt 0.633148 0.929875
vt 0.677339 0.901127
vt 0.668282 0.923583
vt 0.446397 0.949865
vt 0.337554 0.964947
vt 0.287082 0.977517
vt 0.631872 0.954859
vt 0.650848 0.952145
vt 0.287082 0.981225
vt 0.315863 0.981047
vt 0.000000 1.000000
vt 0.000000 1.000000
vt 0.000000 1.000000
vt 0.000000 1.000000
vt 0.000000 1.000000
vt 0.000000 1.000000
vt 0.000000 1.000000
vt 0.000000 1.000000
vt 0.000000 1.000000
vt 0.169965 0.975150
vt 0.000000 1.000000
vt 0.000000 1.000000
vt 0.000000 1.000000
vt 0.000000 1.000000
vt 0.000000 1.000000
vt 0.000000 1.000000
vt 0.000000 1.000000
vt 0.000000 1.000000
vt 0.000000 1.000000
vt 0.000000 1.000000
vt 0.000000 1.000000
vt 0.000000 1.000000
vt 0.000000 1.000000
vt 0.000000 1.000000
vt 0.000000 1.000000
vt 0.000000 1.000000
vt 0.000000 1.000000
vt 0.000000 1.000000
vt 0.000000 1.000000
vt 0.666822 0.904367
vt 0.347323 0.945510
vt 0.344722 0.952186
vt 0.287082 0.965136
vt 0.287039 0.952205
vt 0.317193 0.952181
vt 0.633148 0.929875
vt 0.677339 0.901127
vt 0.668282 0.923583
vt 0.446397 0.949865
vt 0.337554 0.964947
vt 0.287082 0.977517
vt 0.631872 0.954859
vt 0.650848 0.952145
vt 0.287082 0.981225
vt 0.315863 0.981047
vt 0.000000 1.000000
vt 0.000000 1.000000
vt 0.000000 1.000000
vt 0.000000 1.000000
vt 0.000000 1.000000
vt 0.000000 1.000000
vt 0.000000 1.000000
vt 0.000000 1.000000
vt 0.000000 1.000000
vt 0.691582 0.898885
vt 0.169965 0.975150
vt 0.000000 1.000000
vt 0.000000 1.000000
vt 0.000000 1.000000
vt 0.000000 1.000000
vt 0.000000 1.000000
vt 0.000000 1.000000
vt 0.000000 1.000000
vt 0.000000 1.000000
vt 0.000000 1.000000
vt 0.000000 1.000000
vt 0.000000 1.000000
vt 0.000000 1.000000
vt 0.000000 1.000000
vt 0.000000 1.000000
vt 0.000000 1.000000
vt 0.000000 1.000000
vt 0.000000 1.000000
vt 0.000000 1.000000
vt 0.000000 1.000000
vn -0.9568 0.2860 -0.0517
vn -0.9577 0.2849 -0.0401
vn -0.9523 0.2990 -0.0608
vn -0.9654 0.2603 -0.0164
vn -0.9520 0.3054 -0.0198
vn -0.9607 0.2756 -0.0322
vn -0.9490 0.3129 -0.0381
vn -0.9591 0.2801 -0.0419
vn -0.9426 0.3293 -0.0553
vn -0.9476 0.3162 -0.0462
vn -0.9371 0.3420 -0.0705
vn -0.9297 0.3678 -0.0221
vn -0.9280 0.3697 -0.0460
vn -0.9200 0.3855 -0.0704
vn -0.8966 0.4424 -0.0214
vn -0.8886 0.4557 -0.0522
vn -0.8775 0.4744 -0.0702
vn -0.9696 0.2443 -0.0123
vn -0.9723 0.2334 -0.0125
vn -0.9726 0.2322 -0.0133
vn -0.9726 0.2321 -0.0125
vn -0.9734 0.2289 -0.0110
vn -0.9731 0.2302 -0.0124
vn -0.9653 0.2594 -0.0292
vn -0.9611 0.2737 -0.0356
vn -0.9606 0.2755 -0.0370
vn -0.8569 0.5124 -0.0561
vn -0.8701 0.4897 -0.0569
vn -0.8665 0.4986 -0.0252
vn -0.8787 0.4771 -0.0152
vn -0.8970 0.4417 -0.0163
vn -0.8867 0.4618 -0.0212
vn -0.8868 0.4616 -0.0213
vn -0.9354 0.3534 -0.0132
vn -0.9557 0.2940 -0.0120
vn -0.9513 0.2994 -0.0731
vn -0.9512 0.3008 -0.0689
vn -0.9515 0.2982 -0.0754
vn -0.9475 0.3096 -0.0804
vn -0.9307 0.3544 -0.0902
vn -0.9192 0.3865 -0.0756
vn -0.9188 0.3897 -0.0626
vn -0.9101 0.4087 -0.0677
vn -0.9099 0.4098 -0.0642
vn -0.9100 0.4098 -0.0629
vn 0.9577 0.2849 -0.0401
vn 0.9568 0.2861 -0.0518
vn 0.9519 0.3002 -0.0609
vn 0.9519 0.3057 -0.0198
vn 0.9657 0.2591 -0.0163
vn 0.9609 0.2749 -0.0336
vn 0.9490 0.3129 -0.0381
vn 0.9590 0.2803 -0.0422
vn 0.9426 0.3293 -0.0553
vn 0.9475 0.3164 -0.0463
vn 0.9367 0.3429 -0.0705
vn 0.9295 0.3681 -0.0221
vn 0.9284 0.3687 -0.0465
vn 0.9201 0.3853 -0.0704
vn 0.8961 0.4433 -0.0215
vn 0.8885 0.4560 -0.0522
vn 0.8775 0.4743 -0.0702
vn 0.9696 0.2445 -0.0123
vn 0.9721 0.2340 -0.0131
vn 0.9725 0.2326 -0.0136
vn 0.9727 0.2317 -0.0120
vn 0.9734 0.2288 -0.0110
vn 0.9731 0.2302 -0.0124
vn 0.9651 0.2603 -0.0296
vn 0.9611 0.2737 -0.0356
vn 0.9569 0.2859 -0.0517
vn 0.9606 0.2755 -0.0370
vn 0.8570 0.5122 -0.0562
vn 0.8700 0.4898 -0.0569
vn 0.8665 0.4986 -0.0252
vn 0.8786 0.4773 -0.0151
vn 0.8970 0.4417 -0.0163
vn 0.8864 0.4624 -0.0207
vn 0.8868 0.4617 -0.0212
vn 0.9353 0.3536 -0.0132
vn 0.9556 0.2943 -0.0120
vn 0.9512 0.3009 -0.0690
vn 0.9513 0.2994 -0.0730
vn 0.9515 0.2982 -0.0754
vn 0.9474 0.3097 -0.0804
vn 0.9308 0.3543 -0.0902
vn 0.9192 0.3865 -0.0755
vn 0.9182 0.3908 -0.0640
vn 0.9102 0.4086 -0.0676
vn 0.9098 0.4099 -0.0657
vn 0.9099 0.4098 -0.0636
usemtl glass.001
s 1
f 42/1/1 41/2/2 40/3/3
f 3/4/4 16/5/5 11/6/6
f 11/6/6 16/5/5 15/7/7
f 11/6/6 15/7/7 13/8/8
f 13/8/8 15/7/7 14/9/9
f 40/3/3 41/2/2 36/10/10
f 40/3/3 36/10/10 37/11/11
f 16/5/5 19/12/12 15/7/7
f 15/7/7 19/12/12 20/13/13
f 15/7/7 20/13/13 14/9/9
f 14/9/9 20/13/13 21/14/14
f 19/12/12 24/15/15 20/13/13
f 20/13/13 24/15/15 23/16/16
f 20/13/13 23/16/16 21/14/14
f 21/14/14 23/16/16 22/17/17
f 4/18/18 3/4/4 9/19/19
f 5/20/20 4/18/18 8/21/21
f 6/22/22 5/20/20 7/23/23
f 7/23/23 5/20/20 8/21/21
f 8/21/21 4/18/18 9/19/19
f 9/19/19 3/4/4 10/24/24
f 10/24/24 3/4/4 11/6/6
f 10/24/24 11/6/6 13/8/8
f 10/24/24 13/8/8 12/25/25
f 41/2/2 42/1/1 1/26/26
f 22/17/17 23/16/16 29/27/27
f 22/17/17 29/27/27 30/28/28
f 29/27/27 23/16/16 28/29/29
f 28/29/29 23/16/16 24/15/15
f 28/29/29 24/15/15 27/30/30
f 27/30/30 24/15/15 25/31/31
f 26/32/32 27/30/30 25/31/31
f 2/33/33 26/32/32 25/31/31
f 25/31/31 24/15/15 19/12/12
f 25/31/31 19/12/12 18/34/34
f 18/34/34 19/12/12 16/5/5
f 18/34/34 16/5/5 17/35/35
f 17/35/35 16/5/5 3/4/4
f 17/35/35 3/4/4 4/18/18
f 45/36/36 44/37/37 43/38/38
f 45/36/36 43/38/38 39/39/39
f 39/39/39 43/38/38 40/3/3
f 40/3/3 43/38/38 42/1/1
f 39/39/39 40/3/3 37/11/11
f 39/39/39 37/11/11 38/40/40
f 38/40/40 37/11/11 34/41/41
f 37/11/11 36/10/10 35/42/42
f 37/11/11 35/42/42 34/41/41
f 34/41/41 35/42/42 33/43/43
f 33/43/43 35/42/42 32/44/44
f 32/44/44 35/42/42 31/45/45
f 46/46/46 89/47/47 88/48/48
f 61/49/49 59/50/50 73/51/51
f 61/49/49 73/51/51 72/52/52
f 72/52/52 73/51/51 75/53/53
f 72/52/52 75/53/53 76/54/54
f 46/46/46 88/48/48 84/55/55
f 84/55/55 88/48/48 85/56/56
f 63/57/57 61/49/49 72/52/52
f 63/57/57 72/52/52 71/58/58
f 71/58/58 72/52/52 76/54/54
f 71/58/58 76/54/54 77/59/59
f 64/60/60 63/57/57 71/58/58
f 64/60/60 71/58/58 70/61/61
f 70/61/61 71/58/58 77/59/59
f 70/61/61 77/59/59 78/62/62
f 59/50/50 57/63/63 58/64/64
f 57/63/63 54/65/65 56/66/66
f 54/65/65 47/67/67 55/68/68
f 54/65/65 55/68/68 56/66/66
f 57/63/63 56/66/66 58/64/64
f 59/50/50 58/64/64 74/69/69
f 59/50/50 74/69/69 73/51/51
f 73/51/51 74/69/69 75/53/53
f 75/53/53 74/69/69 48/70/70
f 89/47/71 53/71/46 49/72/72
f 70/61/61 78/62/62 69/73/73
f 69/73/73 78/62/62 79/74/74
f 70/61/61 69/73/73 65/75/75
f 70/61/61 65/75/75 64/60/60
f 64/60/60 65/75/75 66/76/76
f 64/60/60 66/76/76 68/77/77
f 66/76/76 67/78/78 68/77/77
f 67/78/78 50/79/79 68/77/77
f 64/60/60 68/77/77 63/57/57
f 63/57/57 68/77/77 62/80/80
f 63/57/57 62/80/80 61/49/49
f 61/49/49 62/80/80 60/81/81
f 61/49/49 60/81/81 59/50/50
f 59/50/50 60/81/81 57/63/63
f 51/82/82 91/83/83 90/84/84
f 90/84/84 91/83/83 87/85/85
f 90/84/84 87/85/85 88/48/48
f 90/84/84 88/48/48 89/47/47
f 88/48/48 87/85/85 85/56/56
f 85/56/56 87/85/85 86/86/86
f 85/56/56 86/86/86 82/87/87
f 84/55/55 85/56/56 83/88/88
f 83/88/88 85/56/56 82/87/87
f 83/88/88 82/87/87 81/89/89
f 83/88/88 81/89/89 80/90/90
f 83/88/88 80/90/90 52/91/91
